# xmcd CD database file generated by OrangeCD 6.0
#
# Track frame offsets:
#	150
#	16752
#	38388
#	58470
#	83041
#	101878
#	118347
#	134829
#	163683
#	189530
#	209896
#
# Disc length: 3041 seconds
#
# Revision: 0
# Processed by: cddbd v1.5.2PL0 Copyright (c) Steve Scherf et al.
# Submitted via: OrangeCD 6.0
#
DISCID=a40bdf0b
DTITLE=Bonnie Raitt - Longing in their hearts
DYEAR=1994
DGENRE=
TTITLE0=Love sneakin' up on you
TTITLE1=Longing in their hearts
TTITLE2=You
TTITLE3=Cool,clear water
TTITLE4=Circle dance
TTITLE5=I sho do
TTITLE6=Dimming of the day
TTITLE7=Feeling or falling
TTITLE8=Steal your heart away
TTITLE9=Storm warning
TTITLE10=Hell to pay
EXTD=
EXTT0=
EXTT1=
EXTT2=
EXTT3=
EXTT4=
EXTT5=
EXTT6=
EXTT7=
EXTT8=
EXTT9=
EXTT10=
PLAYORDER=
